<svg width="100" height="100" viewBox="0 0 100 100" fill="none" xmlns="http://www.w3.org/2000/svg">
<rect width="100" height="100" rx="50" fill="#F2F2F2"/>
<path d="M50 35C41.735 35 35 41.735 35 50C35 58.265 41.735 65 50 65C58.265 65 65 58.265 65 50C65 41.735 58.265 35 50 35ZM54.185 50.795L48.89 56.09C48.665 56.315 48.38 56.42 48.095 56.42C47.81 56.42 47.525 56.315 47.3 56.09C46.865 55.655 46.865 54.935 47.3 54.5L51.8 50L47.3 45.5C46.865 45.065 46.865 44.345 47.3 43.91C47.735 43.475 48.455 43.475 48.89 43.91L54.185 49.205C54.635 49.64 54.635 50.36 54.185 50.795Z" fill="#7001FE"/>
</svg>
